<svg xmlns="http://www.w3.org/2000/svg" viewBox="0 0 480 120" fill="none">
  <!-- Cloud + J icon mark -->
  <g transform="translate(8, 8)">
    <!-- Cloud shape -->
    <path d="M52 88 C28 88 10 72 10 52 C10 34 24 20 42 18 C44 8 54 0 66 0 C76 0 84 6 88 14 C90 13 92 13 94 13 C106 13 116 23 116 35 C116 36 116 37 115 38 C120 42 124 48 124 55 C124 72 110 88 94 88 Z" 
          fill="white" opacity="0.95"/>
    <!-- Stylized J inside cloud -->
    <path d="M68 22 C68 22 72 20 76 22 C80 24 80 30 78 38 L72 62 C70 70 66 76 60 78 C54 80 48 76 46 70 C44 64 48 58 54 58" 
          stroke="#12202c" stroke-width="5" stroke-linecap="round" fill="none"/>
    <!-- J dot -->
    <circle cx="74" cy="16" r="4" fill="#12202c"/>
    <!-- J curl at bottom -->
    <path d="M54 58 C50 60 46 66 48 72 C50 78 58 80 64 76" 
          stroke="#12202c" stroke-width="5" stroke-linecap="round" fill="none"/>
  </g>
  <!-- Jannah wordmark -->
  <text x="148" y="82" font-family="Poppins, Georgia, serif" font-weight="700" font-size="62" fill="white" letter-spacing="-1">Jannah</text>
</svg>
