<svg xmlns="http://www.w3.org/2000/svg" viewBox="0 0 120 100" fill="none">
  <!-- Cloud shape -->
  <path d="M46 88 C22 88 4 72 4 52 C4 34 18 20 36 18 C38 8 48 0 60 0 C70 0 78 6 82 14 C84 13 86 13 88 13 C100 13 110 23 110 35 C110 36 110 37 109 38 C114 42 118 48 118 55 C118 72 104 88 88 88 Z" 
        fill="white" opacity="0.95"/>
  <!-- Stylized J inside cloud -->
  <path d="M62 22 C62 22 66 20 70 22 C74 24 74 30 72 38 L66 62 C64 70 60 76 54 78 C48 80 42 76 40 70 C38 64 42 58 48 58" 
        stroke="#12202c" stroke-width="5" stroke-linecap="round" fill="none"/>
  <!-- J dot -->
  <circle cx="68" cy="16" r="4" fill="#12202c"/>
  <!-- J curl at bottom -->
  <path d="M48 58 C44 60 40 66 42 72 C44 78 52 80 58 76" 
        stroke="#12202c" stroke-width="5" stroke-linecap="round" fill="none"/>
</svg>
